<?xml version="1.0" encoding="UTF-8"?>
<!DOCTYPE svg PUBLIC "-//W3C//DTD SVG 1.1//EN" "http://www.w3.org/Graphics/SVG/1.1/DTD/svg11.dtd">
<svg xmlns="http://www.w3.org/2000/svg" version="1.1" width="1024px" height="1536px" style="shape-rendering:geometricPrecision; text-rendering:geometricPrecision; image-rendering:optimizeQuality; fill-rule:evenodd; clip-rule:evenodd" xmlns:xlink="http://www.w3.org/1999/xlink">
<g><path style="opacity:1" fill="#fefefe" d="M -0.5,-0.5 C 340.833,-0.5 682.167,-0.5 1023.5,-0.5C 1023.5,511.5 1023.5,1023.5 1023.5,1535.5C 682.167,1535.5 340.833,1535.5 -0.5,1535.5C -0.5,1023.5 -0.5,511.5 -0.5,-0.5 Z"/></g>
<g><path style="opacity:1" fill="#5f8bfe" d="M 343.5,402.5 C 363.004,401.172 382.671,401.172 402.5,402.5C 402.376,403.107 402.043,403.44 401.5,403.5C 382.341,402.503 363.007,402.17 343.5,402.5 Z"/></g>
<g><path style="opacity:1" fill="#033efd" d="M 343.5,402.5 C 363.007,402.17 382.341,402.503 401.5,403.5C 401.167,404.5 400.5,405.167 399.5,405.5C 390.525,404.168 381.191,403.502 371.5,403.5C 362.167,403.833 352.833,404.167 343.5,404.5C 342.965,406.261 341.965,407.594 340.5,408.5C 340.992,406.181 341.992,404.181 343.5,402.5 Z"/></g>
<g><path style="opacity:1" fill="#2762fe" d="M 399.5,405.5 C 379.859,433.482 360.192,461.482 340.5,489.5C 364.663,490.332 388.997,490.832 413.5,491C 412.177,491.816 411.511,492.983 411.5,494.5C 374.576,539.094 336.909,583.094 298.5,626.5C 317.31,588.879 336.643,551.546 356.5,514.5C 357.338,514.158 357.672,513.492 357.5,512.5C 334.663,511.833 311.663,511.167 288.5,510.5C 291.578,504.009 294.912,497.675 298.5,491.5C 298.376,490.893 298.043,490.56 297.5,490.5C 311.327,462.843 325.661,435.51 340.5,408.5C 341.965,407.594 342.965,406.261 343.5,404.5C 352.833,404.167 362.167,403.833 371.5,403.5C 381.191,403.502 390.525,404.168 399.5,405.5 Z"/></g>
<g><path style="opacity:1" fill="#131313" d="M 738.5,418.5 C 793.459,416.572 837.959,436.905 872,479.5C 900.694,524.088 903.027,570.088 879,617.5C 844.412,670.54 795.246,694.373 731.5,689C 716.282,687.529 701.615,683.862 687.5,678C 676.377,672.505 665.544,666.672 655,660.5C 634.891,665.903 614.724,670.736 594.5,675C 593.17,671.632 593.67,668.465 596,665.5C 604.041,651.917 612.208,638.417 620.5,625C 599.839,591.884 594.339,556.384 604,518.5C 619.047,473.119 649.214,442.619 694.5,427C 708.996,422.532 723.662,419.699 738.5,418.5 Z"/></g>
<g><path style="opacity:1" fill="#fefefe" d="M 733.5,425.5 C 784.885,422.445 827.718,439.778 862,477.5C 892.885,519.967 896.885,564.967 874,612.5C 844.75,658.972 802.417,682.638 747,683.5C 715.245,682.581 686.412,673.081 660.5,655C 658.966,654.077 657.299,653.577 655.5,653.5C 638.17,658 620.837,662.166 603.5,666C 611.915,652.583 619.915,638.916 627.5,625C 604.219,587.876 600.053,548.709 615,507.5C 632.388,469.222 661.221,444.056 701.5,432C 712.195,429.278 722.861,427.111 733.5,425.5 Z"/></g>
<g><path style="opacity:1" fill="#072ffe" d="M 340.5,489.5 C 365.836,489.333 391.169,489.5 416.5,490C 414.963,491.707 413.296,493.207 411.5,494.5C 411.511,492.983 412.177,491.816 413.5,491C 388.997,490.832 364.663,490.332 340.5,489.5 Z"/></g>
<g><path style="opacity:1" fill="#0c34fe" d="M 297.5,490.5 C 298.043,490.56 298.376,490.893 298.5,491.5C 294.912,497.675 291.578,504.009 288.5,510.5C 311.663,511.167 334.663,511.833 357.5,512.5C 333.5,512.5 309.5,512.5 285.5,512.5C 289.53,505.1 293.53,497.767 297.5,490.5 Z"/></g>
<g><path style="opacity:1" fill="#b6ccfd" d="M 285.5,512.5 C 309.5,512.5 333.5,512.5 357.5,512.5C 357.672,513.492 357.338,514.158 356.5,514.5C 332.833,513.833 309.167,513.167 285.5,512.5 Z"/></g>
<g><path style="opacity:1" fill="#265efe" d="M 756.5,527.5 C 766.263,525.75 775.93,526.583 785.5,530C 792.502,535.786 794.335,542.953 791,551.5C 787.978,558.851 782.478,562.684 774.5,563C 771.854,563.497 769.187,563.664 766.5,563.5C 765.512,568.64 765.179,573.974 765.5,579.5C 762.833,579.5 760.167,579.5 757.5,579.5C 757.83,561.992 757.497,544.659 756.5,527.5 Z"/></g>
<g><path style="opacity:1" fill="#2762fe" d="M 848.5,547.5 C 848.795,549.735 848.461,551.735 847.5,553.5C 846.518,556.962 846.185,560.629 846.5,564.5C 844.533,564.739 842.699,564.406 841,563.5C 840.946,556.431 840.446,551.431 839.5,548.5C 838.539,546.735 838.205,544.735 838.5,542.5C 839.486,538.03 839.819,533.363 839.5,528.5C 842.167,528.5 844.833,528.5 847.5,528.5C 847.177,535.022 847.51,541.355 848.5,547.5 Z"/></g>
<g><path style="opacity:1" fill="#2a5ffe" d="M 663.5,562.5 C 662.669,551.007 662.169,539.341 662,527.5C 661.333,539.833 661.333,552.167 662,564.5C 662.278,565.416 662.778,566.082 663.5,566.5C 667.685,572.208 673.351,574.041 680.5,572C 684.165,570.332 686.332,567.499 687,563.5C 687.5,551.171 687.667,538.838 687.5,526.5C 690.833,526.5 694.167,526.5 697.5,526.5C 697.911,540.884 697.411,555.217 696,569.5C 695.208,572.106 693.708,574.106 691.5,575.5C 681.475,581.473 671.142,581.973 660.5,577C 658.044,574.592 656.211,571.759 655,568.5C 654.601,568.728 654.435,569.062 654.5,569.5C 653.71,568.391 653.21,567.058 653,565.5C 652.5,552.504 652.333,539.504 652.5,526.5C 656.167,526.5 659.833,526.5 663.5,526.5C 663.5,538.5 663.5,550.5 663.5,562.5 Z"/></g>
<g><path style="opacity:1" fill="#033cfe" d="M 663.5,562.5 C 663.5,563.833 663.5,565.167 663.5,566.5C 662.778,566.082 662.278,565.416 662,564.5C 661.333,552.167 661.333,539.833 662,527.5C 662.169,539.341 662.669,551.007 663.5,562.5 Z"/></g>
<g><path style="opacity:1" fill="#0233fe" d="M 848.5,547.5 C 847.51,541.355 847.177,535.022 847.5,528.5C 844.833,528.5 842.167,528.5 839.5,528.5C 839.819,533.363 839.486,538.03 838.5,542.5C 838.5,537.5 838.5,532.5 838.5,527.5C 842.182,527.335 845.848,527.501 849.5,528C 848.522,534.41 848.189,540.91 848.5,547.5 Z"/></g>
<g><path style="opacity:1" fill="#fcfcfd" d="M 766.5,536.5 C 779.615,534.762 783.948,539.928 779.5,552C 775.454,554.174 771.121,555.007 766.5,554.5C 766.5,548.5 766.5,542.5 766.5,536.5 Z"/></g>
<g><path style="opacity:1" fill="#0a3dfe" d="M 710.5,527.5 C 712.527,527.338 714.527,527.505 716.5,528C 714.866,528.494 713.199,528.66 711.5,528.5C 711.5,545.5 711.5,562.5 711.5,579.5C 714.167,579.5 716.833,579.5 719.5,579.5C 719.5,573.833 719.5,568.167 719.5,562.5C 726.473,562.572 733.14,561.239 739.5,558.5C 733.995,562.771 727.662,564.438 720.5,563.5C 720.5,569.167 720.5,574.833 720.5,580.5C 717.167,580.5 713.833,580.5 710.5,580.5C 710.5,562.833 710.5,545.167 710.5,527.5 Z"/></g>
<g><path style="opacity:1" fill="#255afe" d="M 810.5,526.5 C 816.262,526.149 821.928,526.649 827.5,528C 827.704,530.621 827.704,533.455 827.5,536.5C 823.181,535.751 818.848,535.585 814.5,536C 808.824,538.356 808.158,541.689 812.5,546C 818.272,548.634 823.439,552.134 828,556.5C 833.285,567.651 830.451,575.818 819.5,581C 813.083,581.87 806.749,581.536 800.5,580C 799.213,576.875 799.213,573.709 800.5,570.5C 806.74,573.028 812.907,573.028 819,570.5C 821.229,565.758 820.062,561.925 815.5,559C 808.842,556.599 803.675,552.433 800,546.5C 798.02,536.788 801.52,530.122 810.5,526.5 Z"/></g>
<g><path style="opacity:1" fill="#2760fe" d="M 710.5,527.5 C 720.755,525.465 730.755,526.632 740.5,531C 747.982,539.332 748.482,548.166 742,557.5C 741.329,558.252 740.496,558.586 739.5,558.5C 733.14,561.239 726.473,562.572 719.5,562.5C 719.5,568.167 719.5,573.833 719.5,579.5C 716.833,579.5 714.167,579.5 711.5,579.5C 711.5,562.5 711.5,545.5 711.5,528.5C 713.199,528.66 714.866,528.494 716.5,528C 714.527,527.505 712.527,527.338 710.5,527.5 Z"/></g>
<g><path style="opacity:1" fill="#fcfdfe" d="M 720.5,536.5 C 734.627,535.094 738.627,540.594 732.5,553C 728.637,554.354 724.637,554.854 720.5,554.5C 720.5,548.5 720.5,542.5 720.5,536.5 Z"/></g>
<g><path style="opacity:1" fill="#6590fe" d="M 710.5,527.5 C 710.5,545.167 710.5,562.833 710.5,580.5C 713.833,580.5 717.167,580.5 720.5,580.5C 717.038,581.482 713.371,581.815 709.5,581.5C 709.17,563.326 709.503,545.326 710.5,527.5 Z"/></g>
<g><path style="opacity:1" fill="#053cfc" d="M 847.5,553.5 C 847.5,557.5 847.5,561.5 847.5,565.5C 844.833,565.5 842.167,565.5 839.5,565.5C 839.5,559.833 839.5,554.167 839.5,548.5C 840.446,551.431 840.946,556.431 841,563.5C 842.699,564.406 844.533,564.739 846.5,564.5C 846.185,560.629 846.518,556.962 847.5,553.5 Z"/></g>
<g><path style="opacity:1" fill="#213cff" d="M 756.5,527.5 C 757.497,544.659 757.83,561.992 757.5,579.5C 760.167,579.5 762.833,579.5 765.5,579.5C 765.179,573.974 765.512,568.64 766.5,563.5C 766.5,569.5 766.5,575.5 766.5,581.5C 763.167,581.5 759.833,581.5 756.5,581.5C 756.5,563.5 756.5,545.5 756.5,527.5 Z"/></g>
<g><path style="opacity:1" fill="#324efe" d="M 691.5,575.5 C 681.544,583.695 670.877,584.529 659.5,578C 656.928,575.687 655.261,572.854 654.5,569.5C 654.435,569.062 654.601,568.728 655,568.5C 656.211,571.759 658.044,574.592 660.5,577C 671.142,581.973 681.475,581.473 691.5,575.5 Z"/></g>
<g><path style="opacity:1" fill="#1a40fd" d="M 841.5,569.5 C 849.571,570.093 851.571,573.926 847.5,581C 840,582.833 837.167,580 839,572.5C 840.045,571.627 840.878,570.627 841.5,569.5 Z"/></g>
<g><path style="opacity:1" fill="#2863fd" d="M 841.5,571.5 C 848.486,571.331 850.153,574.164 846.5,580C 839.416,580.475 837.749,577.642 841.5,571.5 Z"/></g>
<g><path style="opacity:1" fill="#687efc" d="M 298.5,626.5 C 298.539,627.756 298.039,628.756 297,629.5C 296.415,628.002 296.915,627.002 298.5,626.5 Z"/></g>
<g><path style="opacity:1" fill="#141414" d="M 466.5,1117.5 C 466.5,1128.17 466.5,1138.83 466.5,1149.5C 478.505,1149.33 490.505,1149.5 502.5,1150C 506.212,1152.51 507.378,1156.01 506,1160.5C 504.891,1162.81 503.057,1164.31 500.5,1165C 485.407,1165.97 470.407,1165.63 455.5,1164C 453.951,1162.79 452.785,1161.29 452,1159.5C 451.5,1145.5 451.333,1131.5 451.5,1117.5C 451.5,1057.17 451.5,996.833 451.5,936.5C 431.675,936.113 412.509,932.447 394,925.5C 393.5,989.832 393.333,1054.17 393.5,1118.5C 393.5,1128.83 393.5,1139.17 393.5,1149.5C 404.838,1149.33 416.172,1149.5 427.5,1150C 432.224,1152.44 433.724,1156.27 432,1161.5C 430.833,1162.67 429.667,1163.83 428.5,1165C 413.167,1165.67 397.833,1165.67 382.5,1165C 380.274,1163.77 378.774,1161.94 378,1159.5C 377.5,1146.17 377.333,1132.84 377.5,1119.5C 377.667,1052.5 377.5,985.499 377,918.5C 331.696,893.602 300.696,856.602 284,807.5C 275.448,782.518 271.114,756.852 271,730.5C 271.833,728.333 273.333,726.833 275.5,726C 389.828,724.075 504.162,722.242 618.5,720.5C 625.167,720.667 631.833,720.833 638.5,721C 640.939,721.774 642.773,723.274 644,725.5C 645.466,779.094 630.466,827.428 599,870.5C 565.003,912.582 520.836,934.582 466.5,936.5C 466.5,996.833 466.5,1057.17 466.5,1117.5 Z"/></g>
<g><path style="opacity:1" fill="#fefefe" d="M 586.5,735.5 C 600.833,735.5 615.167,735.5 629.5,735.5C 628.583,785.101 612.749,829.101 582,867.5C 548.635,904.756 506.802,922.756 456.5,921.5C 393.401,919.548 345.901,891.548 314,837.5C 297.516,807.231 288.016,774.897 285.5,740.5C 385.999,739.022 486.333,737.355 586.5,735.5 Z"/></g>
<g><path style="opacity:1" fill="#141414" d="M 460.5,784.5 C 472.679,784.172 477.179,789.838 474,801.5C 466.497,808.581 459.831,807.914 454,799.5C 452.407,792.699 454.574,787.699 460.5,784.5 Z"/></g>
<g><path style="opacity:1" fill="#141414" d="M 539.5,784.5 C 550.989,783.155 555.823,788.155 554,799.5C 550.367,805.736 545.201,807.569 538.5,805C 530.337,797.678 530.671,790.844 539.5,784.5 Z"/></g>
<g><path style="opacity:1" fill="#141414" d="M 494.5,820.5 C 518.74,817.202 536.573,826.202 548,847.5C 551.449,854.653 552.116,861.986 550,869.5C 545.731,872.383 541.731,872.05 538,868.5C 533.421,840.934 517.588,830.767 490.5,838C 478.331,844.865 471.831,855.365 471,869.5C 465.879,873.875 461.545,873.209 458,867.5C 457.69,850.954 464.19,837.787 477.5,828C 483.001,824.911 488.668,822.411 494.5,820.5 Z"/></g>
<g><path style="opacity:1" fill="#fdfdfd" d="M 451.5,1117.5 C 432.166,1117.79 412.832,1118.12 393.5,1118.5C 393.333,1054.17 393.5,989.832 394,925.5C 412.509,932.447 431.675,936.113 451.5,936.5C 451.5,996.833 451.5,1057.17 451.5,1117.5 Z"/></g>
<g><path style="opacity:1" fill="#616f76" d="M 451.5,1117.5 C 451.333,1131.5 451.5,1145.5 452,1159.5C 452.785,1161.29 453.951,1162.79 455.5,1164C 470.407,1165.63 485.407,1165.97 500.5,1165C 503.057,1164.31 504.891,1162.81 506,1160.5C 507.378,1156.01 506.212,1152.51 502.5,1150C 490.505,1149.5 478.505,1149.33 466.5,1149.5C 466.5,1138.83 466.5,1128.17 466.5,1117.5C 555.573,1116.7 644.573,1118.87 733.5,1124C 771.788,1125.91 809.788,1130.25 847.5,1137C 857.143,1138.49 866.143,1141.66 874.5,1146.5C 875.553,1147.44 876.22,1148.6 876.5,1150C 875.179,1152.65 873.179,1154.65 870.5,1156C 856.199,1161.06 841.533,1164.73 826.5,1167C 753.101,1175.7 679.434,1180.7 605.5,1182C 540.833,1182.67 476.167,1182.67 411.5,1182C 339.238,1180.67 267.238,1175.67 195.5,1167C 178.791,1165.16 162.791,1160.82 147.5,1154C 144.793,1152.14 143.959,1149.64 145,1146.5C 155.738,1140.6 167.238,1136.77 179.5,1135C 245.152,1125.53 311.152,1120.36 377.5,1119.5C 377.333,1132.84 377.5,1146.17 378,1159.5C 378.774,1161.94 380.274,1163.77 382.5,1165C 397.833,1165.67 413.167,1165.67 428.5,1165C 429.667,1163.83 430.833,1162.67 432,1161.5C 433.724,1156.27 432.224,1152.44 427.5,1150C 416.172,1149.5 404.838,1149.33 393.5,1149.5C 393.5,1139.17 393.5,1128.83 393.5,1118.5C 412.832,1118.12 432.166,1117.79 451.5,1117.5 Z"/></g>
</svg>
